<?xml version="1.0" encoding="utf-8"?>
<!-- Generator: Adobe Illustrator 24.0.1, SVG Export Plug-In . SVG Version: 6.00 Build 0)  -->
<svg version="1.1" id="Layer_1" xmlns="http://www.w3.org/2000/svg" x="0px" y="0px"
	 viewBox="0 0 1125 2436" style="enable-background:new 0 0 1125 2436;" xml:space="preserve">
<style type="text/css">
	.st0{fill:#FEDD18;}
	.st1{fill:#717273;}
	.st2{fill:#FDFDFD;}
</style>
	<path class="st0" d="M652.96,1067.12c10.29,6.62,21.1,12.4,30.84,19.93c25.33,19.58,44.97,43.69,58.8,72.55
	c0.43,0.89,0.76,1.83,1.11,2.76c0.03,0.09-0.17,0.26-0.7,1.04c-5.1-4.66-10.64-8.83-15.1-13.94
	c-27.57-31.62-61.47-52.97-102.04-63.71c-0.28-0.07-0.49-0.4-1.2-1.01c8.34-7.2,18.24-11.78,27.3-17.61
	C652.3,1067.12,652.63,1067.12,652.96,1067.12z"/>
	<path class="st1" d="M400.83,1281.65c-5.24-8.23-9.29-16.73-12.46-25.55c-9.39-26.19-11.03-19.5,1.68-48.61
	c29.66-67.96,81.61-109.24,155.14-120.2c68.75-10.24,127.57,11.5,175.84,61.55c0.81,0.84,1.55,1.73,2.29,2.63
	c0.41,0.5,0.73,1.07,1.92,2.84c-62.05-45.16-128.45-57.68-199.16-29.72C455.3,1152.59,415.01,1206.85,400.83,1281.65z"/>
	<path class="st0" d="M436.59,1330.92c-9.84-9.79-17.62-20.68-25.45-31.59c-4.46-6.22-5.17-12.18-3.47-19.51
	c14.44-62.53,48.75-110.05,105.86-140.17c25.01-13.19,51.88-20.19,80.23-21.81c32.9-1.88,64.17,4.26,94.16,17.61
	c1.18,0.52,2.29,1.21,3.45,2.36c-63.12-14.53-121.67-4.99-173.63,34.34C465.63,1211.6,440.94,1265.74,436.59,1330.92z"/>
	<path class="st0" d="M467.6,1245.32c5.97,11.36,12.82,22.28,20.8,32.47c1.35,1.73,0.73,3.48,0.25,5.22
	c-6.86,25.01-8.64,50.33-4.8,76.01c0.23,1.52,1.21,3.59-0.36,4.56c-1.33,0.82-2.65-0.91-3.86-1.68c-11.12-7.1-20.86-15.9-30.6-24.71
	c-1.73-1.56-1.97-3.22-1.99-5.28c-0.13-13.67,1.68-27.11,3.85-40.6c2.51-15.62,8.4-29.95,14.84-44.16
	C466.05,1246.44,466.25,1245.54,467.6,1245.32z"/>
	<path class="st2" d="M654.02,1188.4c0.49-2.94,0.93-5.54,1.35-8.14c0.29-1.8,1.34-2.44,3.13-2.31c1.42,0.11,3,0.39,3.02,1.92
	c0.03,3.44-0.15,6.96-2.37,9.87c-1.01,1.32-2.59,1.36-4.1,1.11C653.11,1190.54,654.43,1188.98,654.02,1188.4z"/>
</svg>
